<?xml version="1.0" encoding="utf-8"?>
<!-- Generator: Adobe Illustrator 19.2.1, SVG Export Plug-In . SVG Version: 6.00 Build 0)  -->
<svg version="1.1" id="Layer_1" xmlns="http://www.w3.org/2000/svg" xmlns:xlink="http://www.w3.org/1999/xlink" x="0px" y="0px"
	 viewBox="0 0 40 40" style="enable-background:new 0 0 40 40;" xml:space="preserve">
<style type="text/css">
	.st0{fill:#FEF954;}
</style>
<title>circle2</title>
<g>
	<path class="st0" d="M20,1.4c10.3,0,18.6,8.4,18.6,18.7c0,10.3-8.4,18.6-18.6,18.6C9.7,38.6,1.4,30.3,1.4,20
		C1.3,9.7,9.7,1.4,20,1.4L20,1.4 M20,0.4C20,0.4,20,0.4,20,0.4C9.1,0.4,0.3,9.2,0.4,20c0,10.8,8.8,19.6,19.6,19.6c0,0,0,0,0,0
		c10.8,0,19.6-8.8,19.6-19.6C39.7,9.2,30.9,0.4,20,0.4L20,0.4z"/>
</g>
</svg>
