<?xml version="1.0" encoding="utf-8"?>
<!-- Generator: Adobe Illustrator 19.2.1, SVG Export Plug-In . SVG Version: 6.00 Build 0)  -->
<svg version="1.1" id="Layer_1" xmlns="http://www.w3.org/2000/svg" xmlns:xlink="http://www.w3.org/1999/xlink" x="0px" y="0px"
	 viewBox="0 0 2000 741.9" style="enable-background:new 0 0 2000 741.9;" xml:space="preserve">
<style type="text/css">
	.st0{opacity:0.55;fill:url(#SVGID_1_);enable-background:new    ;}
</style>
<linearGradient id="SVGID_1_" gradientUnits="userSpaceOnUse" x1="1" y1="373" x2="2001" y2="373" gradientTransform="matrix(1 0 0 -1 0 742)">
	<stop  offset="0" style="stop-color:#FFFFFF"/>
	<stop  offset="0.1524" style="stop-color:#ADC0E3"/>
	<stop  offset="0.4035" style="stop-color:#F1C3DB"/>
	<stop  offset="0.5516" style="stop-color:#D7C2DF"/>
	<stop  offset="0.6594" style="stop-color:#BEC1E2"/>
	<stop  offset="0.7764" style="stop-color:#AEC0E3"/>
	<stop  offset="1" style="stop-color:#FFFFFF"/>
</linearGradient>
<path class="st0" d="M1388.5,14.5c-256.2,1.4-430.6,269.3-603.2,275.8C634,296,541.8,79,343.4,79C197.3,79,142,153.9,77.8,198.8
	C30,232.3,1,286.6,1,345v24v24c0,58.4,29,112.8,76.8,146.3C142,584.1,197.3,659,343.4,659c198.4,0,290.6-217,441.9-211.3
	c172.6,6.5,347,274.4,603.2,275.8c240.8,1.3,346.4-129.3,499-188.9C1955.8,508,2001,442.3,2001,369v0v0c0-73.3-45.2-139-113.5-165.6
	C1734.9,143.8,1629.3,13.2,1388.5,14.5z"/>
</svg>
