<?xml version="1.0" encoding="utf-8"?>
<!-- Generator: Adobe Illustrator 19.2.1, SVG Export Plug-In . SVG Version: 6.00 Build 0)  -->
<svg version="1.1" id="Layer_1" xmlns="http://www.w3.org/2000/svg" xmlns:xlink="http://www.w3.org/1999/xlink" x="0px" y="0px"
	 viewBox="0 0 2000 363" style="enable-background:new 0 0 2000 363;" xml:space="preserve">
<style type="text/css">
	.st0{opacity:0.55;fill:url(#SVGID_1_);enable-background:new    ;}
</style>
<linearGradient id="SVGID_1_" gradientUnits="userSpaceOnUse" x1="5" y1="209.8" x2="2005" y2="209.8" gradientTransform="matrix(1 0 0 -1 0 364)">
	<stop  offset="5.000000e-04" style="stop-color:#FFFFFF"/>
	<stop  offset="0.1465" style="stop-color:#95CEF0"/>
	<stop  offset="0.4286" style="stop-color:#A3C4E7"/>
	<stop  offset="0.6425" style="stop-color:#A8C0E4"/>
	<stop  offset="0.8695" style="stop-color:#93D1E6"/>
	<stop  offset="1" style="stop-color:#FFFFFF"/>
</linearGradient>
<path class="st0" d="M1412.7,97.3C1156.5,92,995,33.6,849.8,19.8C670,2.7,538.8,80.8,392,95.3c-156,15.4-196.2-34.7-283.5-41.2
	C50.4,49.8,1,96,1,154.2v0v0c0,58.2,49.4,104.4,107.5,100.1c87.4-6.5,127.5-56.6,283.5-41.2c146.8,14.5,278,92.6,457.8,75.5
	c145.2-13.8,306.7-72.2,562.9-77.5c291.7-6.1,391.4,1.6,501.6,17.9c45.7,6.8,86.7-28.6,86.7-74.8v0v0c0-46.2-41-81.6-86.7-74.8
	C1804.1,95.7,1704.4,103.4,1412.7,97.3z"/>
</svg>
