<?xml version="1.0" encoding="utf-8"?>
<!-- Generator: Adobe Illustrator 19.2.1, SVG Export Plug-In . SVG Version: 6.00 Build 0)  -->
<svg version="1.1" id="Layer_1" xmlns="http://www.w3.org/2000/svg" xmlns:xlink="http://www.w3.org/1999/xlink" x="0px" y="0px"
	 viewBox="0 0 2000 602" style="enable-background:new 0 0 2000 602;" xml:space="preserve">
<style type="text/css">
	.st0{opacity:0.55;fill:url(#SVGID_1_);enable-background:new    ;}
</style>
<linearGradient id="SVGID_1_" gradientUnits="userSpaceOnUse" x1="9" y1="297.9467" x2="2000" y2="297.9467" gradientTransform="matrix(1 0 0 -1 0 602)">
	<stop  offset="0" style="stop-color:#FFFFFF"/>
	<stop  offset="0.15" style="stop-color:#A8C0E4"/>
	<stop  offset="0.2723" style="stop-color:#CFC2E0"/>
	<stop  offset="0.4956" style="stop-color:#E6C3DD"/>
	<stop  offset="0.6295" style="stop-color:#EFC3DC"/>
	<stop  offset="0.687" style="stop-color:#ECC3DC"/>
	<stop  offset="0.739" style="stop-color:#E5C3DD"/>
	<stop  offset="0.832" style="stop-color:#ACC0E4"/>
	<stop  offset="0.957" style="stop-color:#FFFFFF"/>
</linearGradient>
<path class="st0" d="M1415.9,247.6c-254.4-5.3-426.5-18.3-558.9-76.9C719.5,109.7,544.8,5.8,399,20.2c-186.2,18.4-215,104-337.8,181
	C8.6,234.2,9,295.7,9,304.1c0,8.3,4.6,74.5,52.2,102.9c124.4,74.2,151.6,162.6,337.8,181c145.8,14.4,320.5-89.5,458-150.4
	c132.3-58.7,304.5-71.7,558.9-76.9c289.6-6.1,388.6,1.6,498,17.8c45.4,6.7,86.1-28.4,86.1-74.3v0v0c0-45.9-40.7-81-86.1-74.3
	C1804.5,246,1705.5,253.6,1415.9,247.6z"/>
</svg>
