<?xml version="1.0" encoding="utf-8"?>
<!-- Generator: Adobe Illustrator 19.2.1, SVG Export Plug-In . SVG Version: 6.00 Build 0)  -->
<svg version="1.1" id="Layer_1" xmlns="http://www.w3.org/2000/svg" xmlns:xlink="http://www.w3.org/1999/xlink" x="0px" y="0px"
	 viewBox="0 0 2000 520" style="enable-background:new 0 0 2000 520;" xml:space="preserve">
<style type="text/css">
	.st0{opacity:0.55;fill:url(#SVGID_1_);enable-background:new    ;}
</style>
<linearGradient id="SVGID_1_" gradientUnits="userSpaceOnUse" x1="11.721" y1="257.4262" x2="1993" y2="257.4262" gradientTransform="matrix(1 0 0 -1 0 520)">
	<stop  offset="0" style="stop-color:#FFFFFF"/>
	<stop  offset="0.1405" style="stop-color:#91D2ED"/>
	<stop  offset="0.2393" style="stop-color:#95D1CD"/>
	<stop  offset="0.43" style="stop-color:#97D1B6"/>
	<stop  offset="0.5855" style="stop-color:#98D1A7"/>
	<stop  offset="0.6866" style="stop-color:#99D1A2"/>
	<stop  offset="0.7865" style="stop-color:#92D2E6"/>
	<stop  offset="0.9395" style="stop-color:#FFFFFF"/>
</linearGradient>
<path class="st0" d="M1390.1,25.7c-252-14.4-406.8,87.6-576.8,94C664.2,125.3,511.4,42.9,316,42.9C183.5,42.9,95.8,103.8,53,143.1
	C33.5,161,11.7,186.7,11.7,263.6c0,53.2,21.8,100.6,41.3,118.5C95.8,421.4,183.5,482.3,316,482.3c195.5,0,348.3-82.5,497.3-76.8
	c170,6.4,324.8,108.4,576.8,94c276-15.8,359.3-116.3,523.2-143.2c45.9-7.5,79.6-47.2,79.6-93.7v0v0c0-46.5-33.7-86.1-79.6-93.7
	C1749.5,142,1666.1,41.5,1390.1,25.7z"/>
</svg>
